<svg id="Capa_1" enable-background="new 0 0 512 512" height="512" viewBox="0 0 512 512" width="512" xmlns="http://www.w3.org/2000/svg"><path d="m138.681 479.366h-119.144c-6.627 0-12-5.373-12-12v-409.941c0-6.627 5.373-12 12-12h119.145c6.627 0 12 5.373 12 12v409.941c-.001 6.627-5.373 12-12.001 12z" fill="#05e29a"/><path d="m138.622 45.425h-24.4v351.038c0 26.393-21.396 47.789-47.789 47.789h-58.896v23.055c0 6.66 5.399 12.059 12.059 12.059h119.026c6.66 0 12.059-5.399 12.059-12.059v-409.823c0-6.66-5.399-12.059-12.059-12.059z" fill="#1dd08d"/><path d="m95.066 426.534h-31.913c-13.618 0-24.658-11.04-24.658-24.658v-.244c0-13.618 11.04-24.658 24.658-24.658h31.913c13.618 0 24.658 11.04 24.658 24.658v.244c0 13.618-11.04 24.658-24.658 24.658z" fill="#586b76"/><path d="m94.944 376.974h-7.292c.724 2.328 1.114 4.803 1.114 7.369 0 13.686-11.094 24.78-24.78 24.78h-24.377c3.138 10.087 12.546 17.411 23.666 17.411h31.67c13.686 0 24.78-11.094 24.78-24.78-.001-13.686-11.095-24.78-24.781-24.78z" fill="#465961"/><path d="m116.003 315.989h-73.788c-3.72 0-6.736-3.016-6.736-6.736v-202.292c0-3.72 3.016-6.736 6.736-6.736h73.787c3.72 0 6.736 3.016 6.736 6.736v202.292c.001 3.72-3.015 6.736-6.735 6.736z" fill="#fff0e1"/><path d="m115.97 100.225h-21.174v182.296c0 3.739-3.031 6.769-6.769 6.769h-52.548v19.929c0 3.738 3.031 6.769 6.769 6.769h73.721c3.739 0 6.769-3.031 6.769-6.769v-202.225c.001-3.738-3.03-6.769-6.768-6.769z" fill="#ffeccf"/><path d="m281.785 479.366h-119.145c-6.627 0-12-5.373-12-12v-409.941c0-6.627 5.373-12 12-12h119.145c6.627 0 12 5.373 12 12v409.941c0 6.627-5.373 12-12 12z" fill="#fcb143"/><path d="m281.725 45.425h-24.4v351.038c0 26.393-21.396 47.789-47.789 47.789h-58.896v23.055c0 6.66 5.399 12.059 12.059 12.059h119.026c6.66 0 12.059-5.399 12.059-12.059v-409.823c.001-6.66-5.399-12.059-12.059-12.059z" fill="#fba615"/><path d="m238.169 426.534h-31.913c-13.618 0-24.658-11.04-24.658-24.658v-.244c0-13.618 11.04-24.658 24.658-24.658h31.913c13.618 0 24.658 11.04 24.658 24.658v.244c0 13.618-11.04 24.658-24.658 24.658z" fill="#586b76"/><path d="m238.047 376.974h-7.292c.724 2.328 1.114 4.803 1.114 7.369 0 13.686-11.094 24.78-24.78 24.78h-24.378c3.138 10.087 12.546 17.411 23.666 17.411h31.67c13.686 0 24.78-11.094 24.78-24.78 0-13.686-11.094-24.78-24.78-24.78z" fill="#465961"/><path d="m259.106 315.989h-73.787c-3.72 0-6.736-3.016-6.736-6.736v-202.292c0-3.72 3.016-6.736 6.736-6.736h73.787c3.72 0 6.736 3.016 6.736 6.736v202.292c0 3.72-3.016 6.736-6.736 6.736z" fill="#fff0e1"/><path d="m259.073 100.225h-21.173v182.296c0 3.739-3.031 6.769-6.769 6.769h-52.547v19.929c0 3.738 3.031 6.769 6.769 6.769h73.721c3.739 0 6.769-3.031 6.769-6.769v-202.225c-.001-3.738-3.032-6.769-6.77-6.769z" fill="#ffeccf"/><path d="m494.495 459.784-117.432 20.129c-6.532 1.12-12.735-3.268-13.855-9.8l-69.258-404.048c-1.12-6.532 3.268-12.735 9.8-13.855l117.432-20.129c6.532-1.12 12.735 3.268 13.855 9.8l69.258 404.048c1.119 6.533-3.268 12.736-9.8 13.855z" fill="#fc6b55"/><path d="m421.123 32.091-24.639 3.925 59.329 346.953c4.459 26.014-13.015 50.717-39.028 55.176l-57.46 10.147 3.873 21.762c1.125 6.564 7.359 10.974 13.923 9.849l117.315-20.109c6.564-1.125 10.974-7.359 9.849-13.923l-69.238-403.931c-1.126-6.565-7.359-10.974-13.924-9.849z" fill="#fc534e"/><path d="m442.58 415.081-31.454 5.392c-13.423 2.301-26.169-6.715-28.47-20.138l-.041-.24c-2.301-13.423 6.715-26.169 20.138-28.47l31.454-5.392c13.423-2.301 26.169 6.715 28.47 20.138l.041.24c2.301 13.422-6.715 26.169-20.138 28.47z" fill="#586b76"/><path d="m434.087 366.254-7.187 1.232c1.107 2.172 1.91 4.546 2.343 7.075 2.312 13.489-6.748 26.298-20.237 28.61l-24.027 4.119c4.797 9.412 15.308 15.041 26.267 13.162l31.214-5.35c13.489-2.312 22.549-15.121 20.237-28.61-2.312-13.49-15.121-22.551-28.61-20.238z" fill="#465961"/><path d="m444.54 302.587-72.727 12.466c-3.667.628-7.149-1.834-7.777-5.501l-34.176-199.384c-.629-3.667 1.834-7.149 5.501-7.777l72.727-12.466c3.667-.629 7.149 1.834 7.777 5.501l34.177 199.384c.628 3.667-1.835 7.149-5.502 7.777z" fill="#fff0e1"/><path d="m408.055 89.931-20.869 3.577 30.96 180.925c.632 3.685-1.844 7.184-5.528 7.816l-51.792 8.878 3.206 18.394c.632 3.685 4.131 6.16 7.816 5.528l72.661-12.455c3.685-.632 6.16-4.131 5.528-7.815l-34.167-199.32c-.631-3.685-4.13-6.16-7.815-5.528z" fill="#ffeccf"/><path d="m94.944 369.437h-31.67c-17.819 0-32.317 14.497-32.317 32.317s14.497 32.317 32.317 32.317h31.67c17.819 0 32.317-14.497 32.317-32.317s-14.498-32.317-32.317-32.317zm0 49.56h-31.67c-9.508 0-17.243-7.735-17.243-17.243s7.735-17.243 17.243-17.243h31.67c9.508 0 17.243 7.735 17.243 17.243s-7.735 17.243-17.243 17.243z"/><path d="m130.276 106.994c0-7.888-6.418-14.307-14.306-14.307h-73.721c-7.888 0-14.306 6.418-14.306 14.307v202.225c0 7.888 6.418 14.307 14.306 14.307h73.721c7.888 0 14.306-6.418 14.306-14.307zm-15.074 201.458h-72.185v-200.69h72.185z"/><path d="m64.916 261.082c4.163 0 7.537-3.374 7.537-7.537v-93.198c0-4.163-3.374-7.537-7.537-7.537s-7.537 3.374-7.537 7.537v93.198c0 4.163 3.374 7.537 7.537 7.537z"/><path d="m93.302 261.082c4.163 0 7.537-3.374 7.537-7.537v-68.633c0-4.163-3.374-7.537-7.537-7.537s-7.537 3.374-7.537 7.537v68.633c0 4.163 3.375 7.537 7.537 7.537z"/><path d="m238.047 369.437h-31.669c-17.819 0-32.317 14.497-32.317 32.317s14.497 32.317 32.317 32.317h31.669c17.819 0 32.317-14.497 32.317-32.317s-14.498-32.317-32.317-32.317zm0 49.56h-31.669c-9.508 0-17.243-7.735-17.243-17.243s7.735-17.243 17.243-17.243h31.669c9.508 0 17.243 7.735 17.243 17.243s-7.735 17.243-17.243 17.243z"/><path d="m273.379 106.994c0-7.888-6.418-14.307-14.306-14.307h-73.721c-7.888 0-14.306 6.418-14.306 14.307v202.225c0 7.888 6.418 14.307 14.306 14.307h73.721c7.888 0 14.306-6.418 14.306-14.307zm-15.074 201.458h-72.185v-200.69h72.185z"/><path d="m208.019 261.082c4.163 0 7.537-3.374 7.537-7.537v-93.198c0-4.163-3.374-7.537-7.537-7.537s-7.537 3.374-7.537 7.537v93.198c0 4.163 3.374 7.537 7.537 7.537z"/><path d="m236.406 261.083c4.163 0 7.537-3.374 7.537-7.537v-93.199c0-4.163-3.374-7.537-7.537-7.537s-7.537 3.374-7.537 7.537v93.199c0 4.163 3.374 7.537 7.537 7.537z"/><path d="m511.713 444.597-69.238-403.93c-1.824-10.649-11.97-17.822-22.625-16.005l-117.314 20.11c-1.673.287-3.277.788-4.785 1.472-3.549-5.044-9.404-8.355-16.026-8.355h-119.026c-4.537 0-8.708 1.564-12.033 4.163-3.326-2.602-7.504-4.163-12.044-4.163h-63.352c-4.163 0-7.537 3.374-7.537 7.537s3.374 7.537 7.537 7.537h63.352c2.401 0 4.351 1.885 4.495 4.251-.001.091-.014.18-.014.272v346.16c0 4.163 3.374 7.537 7.537 7.537s7.537-3.374 7.537-7.537v-346.161c0-2.494 2.029-4.522 4.522-4.522h119.026c2.494 0 4.522 2.029 4.522 4.522v409.822c0 2.494-2.029 4.522-4.522 4.522h-119.026c-2.401 0-4.351-1.885-4.495-4.251.001-.091.014-.18.014-.272 0-.266-.014-.528-.041-.786v-28.54c0-4.163-3.374-7.537-7.537-7.537s-7.537 3.374-7.537 7.537v29.327c0 .092.012.18.014.272-.144 2.365-2.094 4.251-4.495 4.251h-119.026c-2.494 0-4.522-2.029-4.522-4.522v-409.823c0-2.494 2.029-4.522 4.522-4.522h20.836c4.163 0 7.537-3.374 7.537-7.537s-3.374-7.537-7.537-7.537h-20.836c-10.805-.001-19.596 8.79-19.596 19.596v409.822c0 10.805 8.791 19.596 19.596 19.596h119.026c4.54 0 8.713-1.566 12.039-4.167 3.326 2.601 7.499 4.167 12.039 4.167h119.026c10.806 0 19.596-8.791 19.596-19.596v-313.623l54.448 317.644c.884 5.16 3.725 9.666 7.998 12.688 3.346 2.367 7.257 3.603 11.274 3.603 1.112 0 2.234-.095 3.353-.287l117.315-20.11c5.159-.884 9.666-3.724 12.688-7.998 3.022-4.272 4.2-9.468 3.315-14.627zm-15.622 5.923c-.697.986-1.737 1.641-2.928 1.845l-117.316 20.11c-1.189.206-2.389-.068-3.375-.765-.986-.698-1.642-1.737-1.846-2.928l-69.238-403.932c-.153-.893-.039-1.798.33-2.615 0 0 0-.001.001-.001.622-1.377 1.878-2.349 3.362-2.604l117.315-20.11c.257-.044.513-.066.766-.066 2.161 0 4.078 1.558 4.455 3.76l69.238 403.931c.205 1.19-.067 2.389-.764 3.375z"/><path d="m432.814 358.824-31.214 5.35c-8.508 1.458-15.939 6.143-20.924 13.191-4.984 7.047-6.927 15.614-5.468 24.121 1.458 8.509 6.142 15.94 13.19 20.924 5.519 3.904 11.968 5.941 18.594 5.941 1.834 0 3.684-.156 5.529-.472l31.214-5.351c8.508-1.458 15.939-6.143 20.924-13.191 4.985-7.047 6.927-15.614 5.469-24.122-3.013-17.562-19.75-29.401-37.314-26.391zm19.537 41.81c-2.66 3.761-6.624 6.259-11.164 7.038l-31.214 5.351c-4.538.778-9.111-.258-12.871-2.918s-6.259-6.624-7.038-11.163c-.778-4.54.258-9.111 2.918-12.871 2.66-3.761 6.625-6.26 11.164-7.038l31.214-5.35c.981-.169 1.958-.25 2.922-.25 8.239 0 15.548 5.942 16.986 14.331.779 4.539-.257 9.111-2.917 12.87z"/><path d="m387.718 312.326c-.704-4.102-4.604-6.857-8.702-6.155l-7.687 1.318-33.906-197.805 71.148-12.195 33.906 197.805-28.978 4.967c-4.103.704-6.858 4.6-6.155 8.703.704 4.102 4.597 6.857 8.702 6.155l29.736-5.098c7.774-1.333 13.015-8.743 11.682-16.518l-34.165-199.317c-.645-3.767-2.719-7.056-5.839-9.263-3.121-2.207-6.914-3.064-10.678-2.421l-72.662 12.456c-7.775 1.333-13.016 8.742-11.683 16.518l34.165 199.317c.645 3.767 2.719 7.057 5.839 9.263 2.443 1.728 5.298 2.63 8.231 2.63.813 0 1.631-.07 2.448-.209l8.443-1.448c4.103-.703 6.859-4.599 6.155-8.703z"/><path d="m366.619 150.385c-4.103.704-6.858 4.6-6.155 8.703l15.746 91.859c.63 3.671 3.816 6.264 7.42 6.264.422 0 .851-.035 1.282-.109 4.103-.704 6.858-4.6 6.155-8.703l-15.746-91.859c-.703-4.102-4.598-6.854-8.702-6.155z"/><path d="m411.608 252.415c.422 0 .851-.035 1.282-.109 4.103-.704 6.858-4.6 6.155-8.703l-15.746-91.859c-.703-4.101-4.594-6.857-8.702-6.155-4.103.704-6.858 4.6-6.155 8.703l15.746 91.859c.629 3.671 3.816 6.264 7.42 6.264z"/></svg>