<svg id="Layer_1" enable-background="new 0 0 256 256" height="512" viewBox="0 0 256 256" width="512" xmlns="http://www.w3.org/2000/svg"><ellipse cx="128" cy="198.989" fill="#fcc24c" rx="124" ry="49.58"/><path d="m15.867 198.989c0-26.587 52.339-48.284 118.066-49.522-1.967-.037-3.944-.058-5.934-.058-68.483 0-124 22.198-124 49.58s55.517 49.58 124 49.58c1.99 0 3.967-.021 5.934-.058-65.727-1.238-118.066-22.936-118.066-49.522z" fill="#fce06a"/><path d="m240.133 198.989c0 26.587-52.339 48.284-118.066 49.522 1.967.037 3.944.058 5.934.058 68.483 0 124-22.198 124-49.58s-55.517-49.58-124-49.58c-1.99 0-3.967.021-5.934.058 65.727 1.238 118.066 22.935 118.066 49.522z" fill="#dea42e"/><ellipse cx="128" cy="198.989" fill="#8852a8" rx="63.028" ry="25.201"/><g fill="#690589"><path d="m128 226.189c-36.464 0-65.028-11.948-65.028-27.201s28.564-27.2 65.028-27.2 65.028 11.948 65.028 27.201-28.564 27.2-65.028 27.2zm0-50.401c-33.081 0-61.028 10.625-61.028 23.201s27.947 23.2 61.028 23.2 61.028-10.625 61.028-23.201-27.947-23.2-61.028-23.2z"/><path d="m128 250.568c-33.37 0-64.773-5.208-88.424-14.665-24.231-9.688-37.576-22.798-37.576-36.914s13.345-27.227 37.576-36.916c23.651-9.457 55.054-14.665 88.424-14.665s64.773 5.208 88.424 14.665c24.231 9.689 37.576 22.799 37.576 36.916s-13.345 27.227-37.576 36.915c-23.651 9.456-55.054 14.664-88.424 14.664zm0-99.159c-32.874 0-63.749 5.106-86.939 14.379-22.609 9.04-35.061 20.831-35.061 33.201s12.452 24.161 35.061 33.201c23.19 9.272 54.065 14.378 86.939 14.378s63.749-5.106 86.939-14.378c22.609-9.04 35.061-20.831 35.061-33.201s-12.452-24.161-35.061-33.201c-23.19-9.273-54.065-14.379-86.939-14.379z"/><path d="m18.912 211.458c-.622 0-1.235-.29-1.626-.833-2.78-3.87-4.189-7.736-4.189-11.491 0-1.104.896-2 2-2s2 .896 2 2c0 2.9 1.157 5.981 3.438 9.158.644.897.439 2.146-.458 2.791-.353.252-.761.375-1.165.375z"/></g><path d="m128 7.431c49.484 0 80.411 53.568 55.669 96.422l-55.669 96.423-55.67-96.422c-24.741-42.855 6.186-96.423 55.67-96.423z" fill="#ff4397"/><path d="m128 7.431c-1.964 0-3.888.114-5.791.279 45.499 3.751 68.85 49.332 49.572 96.143l-43.037 95.135 54.926-95.135c24.741-42.854-6.186-96.422-55.67-96.422z" fill="#e12579"/><path d="m128 7.431c1.964 0 3.888.114 5.791.279-45.499 3.751-68.85 49.332-49.572 96.143l43.037 95.135-54.926-95.134c-24.741-42.855 6.186-96.423 55.67-96.423z" fill="#ff61b5"/><path d="m128 202.275c-.714 0-1.375-.381-1.732-1l-55.669-96.422c-11.981-20.751-11.981-45.53 0-66.281s33.439-33.14 57.401-33.14 45.42 12.389 57.401 33.141 11.981 45.529 0 66.281l-55.669 96.422c-.357.618-1.018.999-1.732.999zm0-192.843c-22.516 0-42.68 11.642-53.938 31.141-11.258 19.5-11.258 42.782 0 62.281l53.938 93.421 53.938-93.422c11.258-19.5 11.258-42.782 0-62.281-11.259-19.499-31.422-31.14-53.938-31.14z" fill="#690589"/><ellipse cx="128" cy="71.385" fill="#f4efed" rx="39.893" ry="39.893" transform="matrix(.305 -.952 .952 .305 20.958 171.494)"/><path d="m128 113.278c-23.1 0-41.893-18.793-41.893-41.893s18.793-41.894 41.893-41.894 41.893 18.793 41.893 41.894-18.793 41.893-41.893 41.893zm0-79.787c-20.895 0-37.893 16.999-37.893 37.894s16.999 37.893 37.893 37.893 37.893-16.999 37.893-37.893-16.998-37.894-37.893-37.894z" fill="#690589"/><path d="m144.749 77.001h-33.498c-4.634 0-8.391 3.757-8.391 8.391v16.961c6.862 5.577 15.609 8.924 25.14 8.924s18.278-3.347 25.14-8.924v-16.961c0-4.634-3.757-8.391-8.391-8.391z" fill="#7bac51"/><path d="m128 77.001c-7.406 0-13.409-6.003-13.409-13.409v-8.252c0-7.405 6.003-13.409 13.409-13.409 7.406 0 13.409 6.003 13.409 13.409v8.252c0 7.406-6.003 13.409-13.409 13.409z" fill="#ff9f70"/><path d="m128 79.001c-8.497 0-15.409-6.913-15.409-15.409v-8.251c0-8.497 6.913-15.409 15.409-15.409s15.409 6.913 15.409 15.409v8.251c0 8.497-6.912 15.409-15.409 15.409zm0-35.069c-6.291 0-11.409 5.118-11.409 11.409v8.251c0 6.291 5.118 11.409 11.409 11.409s11.409-5.118 11.409-11.409v-8.251c0-6.291-5.118-11.409-11.409-11.409z" fill="#690589"/><path d="m128 113.278c-9.589 0-18.966-3.329-26.401-9.372-.467-.38-.739-.95-.739-1.552v-16.962c0-5.729 4.662-10.391 10.391-10.391h33.498c5.729 0 10.391 4.662 10.391 10.391v16.961c0 .602-.271 1.172-.739 1.552-7.435 6.044-16.812 9.373-26.401 9.373zm-23.14-11.891c6.602 5.095 14.781 7.891 23.14 7.891s16.538-2.796 23.14-7.891v-15.995c0-3.524-2.867-6.391-6.391-6.391h-33.498c-3.524 0-6.391 2.867-6.391 6.391zm48.28.967h.01z" fill="#690589"/></svg>