<?xml version="1.0" encoding="iso-8859-1"?>
<!-- Generator: Adobe Illustrator 19.0.0, SVG Export Plug-In . SVG Version: 6.00 Build 0)  -->
<svg version="1.1" id="Capa_1" xmlns="http://www.w3.org/2000/svg" xmlns:xlink="http://www.w3.org/1999/xlink" x="0px" y="0px"
	 viewBox="0 0 512 512" style="enable-background:new 0 0 512 512;" xml:space="preserve">
<rect x="0" y="68.27" style="fill:#77BAFC;" width="290.13" height="358.4"/>
<g>
	<rect x="452.27" y="17.07" style="fill:#F9F4ED;" width="17.07" height="17.07"/>
	<rect x="366.93" y="17.07" style="fill:#F9F4ED;" width="17.07" height="17.07"/>
</g>
<circle style="fill:#FEE9AB;" cx="145.07" cy="256" r="25.6"/>
<g>
	<rect x="59.733" y="34.13" style="fill:#231F20;" width="17.07" height="17.07"/>
	<rect x="110.93" y="34.13" style="fill:#231F20;" width="17.07" height="17.07"/>
	<rect x="136.53" y="452.27" style="fill:#231F20;" width="17.07" height="17.07"/>
	<path style="fill:#231F20;" d="M34.133,110.933v34.133H51.2v-25.6h25.6V102.4H42.667C37.956,102.4,34.133,106.223,34.133,110.933z"
		/>
	<path style="fill:#231F20;" d="M503.467,17.067H486.4V8.533c0-4.71-3.823-8.533-8.533-8.533h-25.6
		c-9.43,0-17.067,7.637-17.067,17.067v17.067c0,9.429,7.637,17.067,17.067,17.067h25.6c4.71,0,8.533-3.823,8.533-8.533v-8.533h8.533
		V153.6c0,42.419-34.381,76.8-76.8,76.8s-76.8-34.381-76.8-76.8V34.133h8.533v8.533c0,4.71,3.823,8.533,8.533,8.533H384
		c9.429,0,17.067-7.637,17.067-17.067V17.067C401.067,7.637,393.429,0,384,0h-25.6c-4.71,0-8.533,3.823-8.533,8.533v8.533H332.8
		c-4.71,0-8.533,3.823-8.533,8.533v128c0.068,48.503,37.035,88.986,85.333,93.431V256c0.026,42.385-34.313,76.774-76.698,76.8
		c-15.232,0.009-30.114-4.514-42.769-12.988V25.6c0-14.14-11.46-25.6-25.6-25.6H25.6C11.46,0,0,11.46,0,25.6v460.8
		C0,500.54,11.46,512,25.6,512h238.933c14.14,0,25.6-11.46,25.6-25.6V339.507c46.029,23.654,102.519,5.513,126.174-40.516
		c6.835-13.295,10.385-28.041,10.359-42.991v-8.969c48.299-4.446,85.265-44.928,85.333-93.431v-128
		C512,20.89,508.177,17.067,503.467,17.067z M469.333,34.133h-17.067V17.067h17.067V34.133z M366.934,17.067H384v17.067h-17.067
		V17.067z M273.067,409.6H51.2v17.067h221.867V486.4c0,4.71-3.823,8.533-8.533,8.533H25.6c-4.71,0-8.533-3.823-8.533-8.533V85.333
		h221.867V68.267H17.067V25.6c0-4.71,3.823-8.533,8.533-8.533h238.933c4.71,0,8.533,3.823,8.533,8.533v278.562
		C262.016,290.543,255.991,273.536,256,256v-76.8c0-32.99-26.743-59.733-59.733-59.733s-59.733,26.743-59.733,59.733v34.987
		c-23.091,4.71-37.982,27.247-33.271,50.338c4.71,23.091,27.247,37.982,50.338,33.271s37.982-27.247,33.271-50.338
		c-3.422-16.759-16.512-29.85-33.271-33.271V179.2c0-23.561,19.106-42.667,42.667-42.667s42.667,19.106,42.667,42.667V256
		c0,28.006,12.518,54.545,34.133,72.354V409.6H273.067z M145.067,230.4c14.14,0,25.6,11.46,25.6,25.6c0,14.14-11.46,25.6-25.6,25.6
		s-25.6-11.46-25.6-25.6C119.467,241.86,130.927,230.4,145.067,230.4z"/>
	<rect x="162.13" y="341.33" style="fill:#231F20;" width="17.07" height="17.07"/>
	<rect x="196.27" y="341.33" style="fill:#231F20;" width="34.13" height="17.07"/>
	<rect x="162.13" y="375.47" style="fill:#231F20;" width="68.27" height="17.07"/>
</g>
<g>
</g>
<g>
</g>
<g>
</g>
<g>
</g>
<g>
</g>
<g>
</g>
<g>
</g>
<g>
</g>
<g>
</g>
<g>
</g>
<g>
</g>
<g>
</g>
<g>
</g>
<g>
</g>
<g>
</g>
</svg>
